<svg viewBox="0 0 129 48" fill="none" preserveAspectRatio="xMidYMid meet" xmlns="http://www.w3.org/2000/svg">
<path d="M39.2585 14.9757H43.2079L48.7309 28.0602L54.254 14.9757H58.2034V33.041H54.8996V21.5043L50.0479 33.041H47.4155L42.5639 21.5043V33.041H39.2601V14.9757H39.2585ZM60.4484 20.0339H63.7006V33.041H60.4484V20.0339ZM65.8864 20.0339H69.1385V21.9949C69.9649 20.7296 71.4353 19.8273 73.2672 19.8273C76.1061 19.8273 78.0155 21.685 78.0155 24.524V33.041H74.7634V25.2987C74.7634 23.7767 73.8079 22.7179 72.2859 22.7179C70.2991 22.7179 69.137 24.4207 69.137 27.3372V33.041H65.8849V20.0339H65.8864ZM92.0889 33.041H88.8368V31.08C88.0104 32.3453 86.5401 33.2476 84.7082 33.2476C81.8692 33.2476 79.9598 31.3898 79.9598 28.5509V20.0339H83.212V27.7762C83.212 29.2982 84.1674 30.3569 85.6894 30.3569C87.6763 30.3569 88.8383 28.6541 88.8383 25.7377V20.0339H92.0904V33.041H92.0889ZM94.255 20.0369V16.2197H97.5056V20.0369H100.782V22.7711H97.5056V28.4719C97.5056 29.7098 98.1755 30.3812 99.1826 30.3812C99.6732 30.3812 100.24 30.3038 100.705 30.0714L100.937 32.9088C100.293 33.1412 99.5958 33.2445 98.8484 33.2445C96.2175 33.2445 94.2565 31.8258 94.2565 28.7817V22.7726M108.252 19.8273C112.639 19.8273 114.783 23.0795 114.783 26.0992C114.783 26.564 114.757 27.1321 114.731 27.3903H105.079C105.363 29.3514 106.627 30.5134 108.486 30.5134C110.008 30.5134 111.093 29.7903 111.429 28.5265L114.474 29.3529C113.751 31.8045 111.48 33.2506 108.435 33.2506C104.125 33.2506 101.827 29.921 101.827 26.5397C101.827 23.1584 103.943 19.8288 108.254 19.8288L108.252 19.8273ZM111.298 25.0146C111.143 23.4668 110.136 22.3048 108.252 22.3048C106.653 22.3048 105.517 23.2602 105.155 25.0146H111.298ZM115.749 29.3058L118.41 28.2212C118.797 29.5382 119.804 30.6243 121.433 30.6243C122.646 30.6243 123.448 29.9787 123.448 29.1524C123.448 26.6977 116.344 28.3002 116.344 23.365C116.344 21.3235 118.126 19.7225 120.968 19.7225C123.5 19.7225 125.643 21.0136 126.211 22.9002L123.576 24.0106C123.214 22.7711 122.078 22.124 121.018 22.124C119.958 22.124 119.286 22.563 119.286 23.3119C119.286 25.6116 126.442 23.7767 126.442 29.0992C126.442 31.3473 124.427 33.1549 121.431 33.1549C118.279 33.1549 116.394 31.2167 115.747 29.3058H115.749ZM62.0996 18.4192C63.1765 18.4192 64.0484 17.5458 64.0484 16.4703C64.0484 15.3949 63.175 14.5215 62.0996 14.5215C61.0241 14.5215 60.1507 15.3949 60.1507 16.4703C60.1507 17.5458 61.0241 18.4192 62.0996 18.4192Z" fill="#0D2880"/>
<path d="M34.7682 40.6314C34.7682 41.9134 33.7308 43.1119 32.4624 43.2957L2.45939 47.6385C1.19103 47.8222 0.153566 46.923 0.153566 45.641V2.35744C0.152047 1.07693 1.18952 0.17769 2.45787 0.361488L32.4609 4.70427C33.7293 4.88807 34.7667 6.08655 34.7667 7.36858V40.6329L34.7682 40.6314Z" fill="#2659FF"/>
<path d="M18.2723 13.4507V21.6168L17.3396 22.8578L15.3193 20.1206L15.0307 19.7302V15.0396L15.3148 14.6841L17.3578 12.1337L18.2723 13.4522V13.4507ZM16.4388 10.8775L15.4621 9.46489L7.5558 8.53223L6.42719 9.8021L8.69656 12.8522L8.97605 13.2274L14.1725 13.6588L14.4991 13.2563L16.4404 10.876L16.4388 10.8775ZM7.71681 28.1408V28.1302L5.35479 25.2593L4.20947 26.6674V35.795L5.33352 37.0558L7.71378 33.9054L8.03732 33.477V28.5282L7.71833 28.1424L7.71681 28.1408ZM14.4307 34.6543L14.1755 34.3413L8.97909 34.7788L8.62365 35.2588L6.42264 38.2072L7.54821 39.477L15.4545 38.5337L16.4343 37.1211L14.4292 34.6543H14.4307ZM22.975 15.6107L22.7214 15.2355L20.8591 12.4694L19.9842 13.595V21.6426L20.8773 22.8836L22.7229 20.3378L22.9766 19.99V15.6122L22.975 15.6107ZM30.3361 13.3991L28.7123 15.6897L28.4874 16.0072V20.1859L28.7138 20.5322L30.3209 22.9702L31.0621 21.8598V14.5672L30.3345 13.3991H30.3361ZM29.6054 12.2887L28.8277 11.0386L22.5968 10.3064L21.7158 11.4411L23.4915 14.1191L23.7087 14.4472L27.8054 14.7874L28.0637 14.4274L29.6039 12.2887H29.6054ZM30.3209 25.0102L28.7107 27.4543L28.4844 27.8006V31.9702L28.7107 32.2892L30.3345 34.5798L31.0621 33.4102V26.1175L30.3209 25.0102ZM22.7229 27.6517V27.6426L20.8773 25.0998L19.9842 26.3408V34.3884L20.8591 35.514L22.7199 32.7494L22.9735 32.3743V27.9935L22.7229 27.6487V27.6517ZM28.0074 33.474L27.8054 33.1915L23.7087 33.5378L23.4292 33.957L21.7082 36.5439L22.5892 37.6801L28.8201 36.9358L29.5978 35.6887L28.0074 33.4725V33.474ZM15.1264 22.071H15.1249L14.9669 21.8598L8.09504 21.7459L7.92036 21.9616H7.91884L6.26922 24.0001L7.81859 25.9049L8.09656 26.2482L14.9685 26.1236L15.1599 25.8684L16.5649 23.9894L15.128 22.0694L15.1264 22.071Z" fill="white"/>
</svg>
