<svg viewBox="0 0 107 40" fill="none" preserveAspectRatio="xMidYMid meet" xmlns="http://www.w3.org/2000/svg">
<g clip-path="url(#clip0_6193_230631)">
<path d="M28.9428 33.8595C28.9428 34.9278 28.079 35.9266 27.0229 36.0797L2.04102 39.6987C0.984937 39.8519 0.121095 39.1025 0.121095 38.0341V1.96453C0.11983 0.897442 0.983672 0.148075 2.03976 0.30124L27.0216 3.92023C28.0777 4.07339 28.9415 5.07212 28.9415 6.14048V33.8607L28.9428 33.8595Z" fill="#2659FF"/>
<path d="M32.6816 12.4798H35.9701L40.5688 23.3836L45.1675 12.4798H48.4559V27.5342H45.705V17.9203L41.6653 27.5342H39.4735L35.4338 17.9203V27.5342H32.6829V12.4798H32.6816ZM50.3253 16.695H53.0331V27.5342H50.3253V16.695ZM54.8519 16.695H57.5598V18.3292C58.2478 17.2747 59.4721 16.5228 60.9974 16.5228C63.3613 16.5228 64.9511 18.0709 64.9511 20.4368V27.5342H62.2432V21.0823C62.2432 19.814 61.4477 18.9317 60.1804 18.9317C58.5261 18.9317 57.5585 20.3507 57.5585 22.7811V27.5342H54.8506V16.695H54.8519ZM76.6693 27.5342H73.9614V25.9001C73.2733 26.9545 72.049 27.7064 70.5237 27.7064C68.1599 27.7064 66.57 26.1583 66.57 23.7925V16.695H69.2779V23.1469C69.2779 24.4152 70.0735 25.2975 71.3408 25.2975C72.9951 25.2975 73.9626 23.8785 73.9626 21.4482V16.695H76.6705V27.5342H76.6693ZM78.4741 16.6975V13.5165H81.1807V16.6975H83.9088V18.976H81.1807V23.7266C81.1807 24.7583 81.7385 25.3178 82.577 25.3178C82.9856 25.3178 83.4573 25.2532 83.8443 25.0595L84.0378 27.4241C83.5016 27.6178 82.9211 27.7039 82.2988 27.7039C80.1082 27.7039 78.4754 26.5216 78.4754 23.9849V18.9773M90.129 16.5228C93.7817 16.5228 95.5663 19.233 95.5663 21.7494C95.5663 22.1368 95.5448 22.6102 95.5233 22.8254H87.4869C87.7234 24.4595 88.7757 25.4279 90.3238 25.4279C91.5911 25.4279 92.4941 24.8254 92.7737 23.7722L95.3095 24.4608C94.7075 26.5039 92.8167 27.7089 90.2808 27.7089C86.6926 27.7089 84.779 24.9342 84.779 22.1165C84.779 19.2988 86.5408 16.5241 90.1303 16.5241L90.129 16.5228ZM92.6649 20.8456C92.5359 19.5557 91.6973 18.5874 90.129 18.5874C88.7972 18.5874 87.8511 19.3836 87.5501 20.8456H92.6649ZM96.7805 16.695H99.4883V18.3292C100.176 17.2747 101.401 16.5228 102.926 16.5228C105.29 16.5228 106.88 18.0709 106.88 20.4368V27.5342H104.172V21.0823C104.172 19.814 103.376 18.9317 102.109 18.9317C100.455 18.9317 99.4871 20.3507 99.4871 22.7811V27.5342H96.7792V16.695H96.7805ZM51.7001 15.3494C52.5968 15.3494 53.3228 14.6216 53.3228 13.7254C53.3228 12.8292 52.5955 12.1013 51.7001 12.1013C50.8046 12.1013 50.0774 12.8292 50.0774 13.7254C50.0774 14.6216 50.8046 15.3494 51.7001 15.3494Z" fill="#0D2880"/>
<path d="M15.2061 11.2088V18.0139L14.4295 19.0481L12.7473 16.7671L12.507 16.4418V12.5329L12.7436 12.2367L14.4447 10.1114L15.2061 11.2101V11.2088ZM13.6808 9.06454L12.8675 7.88732L6.28435 7.11011L5.34462 8.16834L7.23419 10.7101L7.46691 11.0228L11.7937 11.3823L12.0656 11.0468L13.682 9.06327L13.6808 9.06454ZM6.41841 23.4506V23.4418L4.45169 21.0493L3.49805 22.2228V29.8291L4.43398 30.8797L6.41588 28.2544L6.68528 27.8974V23.7734L6.41968 23.4519L6.41841 23.4506ZM12.0087 28.8785L11.7962 28.6177L7.46944 28.9823L7.17348 29.3823L5.34082 31.8392L6.27802 32.8975L12.8612 32.1114L13.677 30.9342L12.0075 28.8785H12.0087ZM19.1231 13.0088L18.9119 12.6962L17.3612 10.3911L16.6327 11.3291V18.0354L17.3764 19.0696L18.9131 16.9481L19.1243 16.6582V13.0101L19.1231 13.0088ZM25.2522 11.1658L23.9001 13.0747L23.713 13.3392V16.8215L23.9014 17.1101L25.2395 19.1418L25.8567 18.2164V12.1392L25.2509 11.1658H25.2522ZM24.6438 10.2405L23.9963 9.19871L18.8082 8.58859L18.0746 9.53416L19.5531 11.7658L19.734 12.0392L23.1451 12.3228L23.3601 12.0228L24.6426 10.2405H24.6438ZM25.2395 20.8418L23.8989 22.8785L23.7104 23.1671V26.6418L23.8989 26.9076L25.2509 28.8164L25.8567 27.8418V21.7645L25.2395 20.8418ZM18.9119 23.043V23.0354L17.3752 20.9164L16.6315 21.9506V28.6569L17.36 29.5949L18.9093 27.2911L19.1206 26.9785V23.3278L18.9119 23.0405V23.043ZM23.312 27.8949L23.1438 27.6595L19.7327 27.9481L19.5 28.2974L18.067 30.4531L18.8006 31.4L23.9887 30.7797L24.6362 29.7405L23.312 27.8937V27.8949ZM12.588 18.3924H12.5867L12.4552 18.2164L6.73334 18.1215L6.58789 18.3012H6.58663L5.21308 20L6.50315 21.5873L6.73461 21.8734L12.4565 21.7696L12.6158 21.5569L13.7857 19.9911L12.5893 18.3911L12.588 18.3924Z" fill="white"/>
</g>
<defs>
<clipPath id="clip0_6193_230631">
<rect width="107" height="40" fill="white"/>
</clipPath>
</defs>
</svg>
