<svg width="120" height="40" viewBox="0 0 120 40" fill="none" xmlns="http://www.w3.org/2000/svg">
<rect x="0.5" y="0.5" width="119" height="39" rx="5.5" fill="black"/>
<rect x="0.5" y="0.5" width="119" height="39" rx="5.5" stroke="#A6A6A6"/>
<path d="M24.7045 20.7631C24.7166 19.8432 24.9669 18.9412 25.4321 18.1411C25.8972 17.341 26.5621 16.6688 27.3648 16.187C26.8548 15.4759 26.1821 14.8908 25.4 14.478C24.6178 14.0652 23.7479 13.8361 22.8592 13.809C20.9635 13.6147 19.1258 14.9164 18.1598 14.9164C17.1751 14.9164 15.6878 13.8282 14.0862 13.8604C13.0502 13.8931 12.0406 14.1872 11.1557 14.7141C10.2708 15.241 9.54075 15.9826 9.03674 16.8669C6.85352 20.5573 8.48201 25.9809 10.5734 28.964C11.6197 30.4247 12.8426 32.0563 14.4428 31.9985C16.0086 31.9351 16.5934 31.0237 18.4835 31.0237C20.3561 31.0237 20.9048 31.9985 22.5374 31.9617C24.2176 31.9351 25.2762 30.4945 26.2859 29.0199C27.0377 27.9791 27.6162 26.8288 28 25.6116C27.0238 25.2085 26.1908 24.5338 25.6048 23.6716C25.0187 22.8094 24.7056 21.7979 24.7045 20.7631Z" fill="white"/>
<path d="M21.621 11.8471C22.5372 10.7734 22.9885 9.39335 22.8792 8C21.4796 8.14352 20.1867 8.7966 19.2582 9.82911C18.8043 10.3335 18.4566 10.9203 18.235 11.556C18.0135 12.1917 17.9224 12.8638 17.9671 13.5338C18.6672 13.5408 19.3597 13.3927 19.9927 13.1005C20.6256 12.8084 21.1824 12.3798 21.621 11.8471Z" fill="white"/>
<path d="M36.7954 14.5V8.15869H37.7798V13.6519H40.7505V14.5H36.7954ZM43.1982 14.5791C42.2886 14.5791 41.6162 14.0254 41.6162 13.1597V13.1509C41.6162 12.2983 42.2578 11.8018 43.396 11.7314L44.688 11.6567V11.2349C44.688 10.7119 44.3584 10.4219 43.7124 10.4219C43.1851 10.4219 42.8379 10.6152 42.7236 10.9536L42.7192 10.9712H41.8008L41.8052 10.9404C41.9194 10.1582 42.6709 9.63525 43.7563 9.63525C44.9561 9.63525 45.6328 10.2329 45.6328 11.2349V14.5H44.688V13.8232H44.6133C44.332 14.3066 43.8311 14.5791 43.1982 14.5791ZM42.5654 13.1201C42.5654 13.5596 42.939 13.8188 43.4531 13.8188C44.165 13.8188 44.688 13.353 44.688 12.7378V12.3291L43.5234 12.4038C42.8643 12.4434 42.5654 12.6807 42.5654 13.1113V13.1201ZM48.7178 14.5791C47.5181 14.5791 46.7402 13.6167 46.7402 12.1182V12.1094C46.7402 10.5977 47.5049 9.64404 48.7178 9.64404C49.3726 9.64404 49.9307 9.96924 50.1855 10.4834H50.2603V7.85547H51.2095V14.5H50.2603V13.7485H50.1855C49.9087 14.2715 49.3857 14.5791 48.7178 14.5791ZM48.9902 13.7661C49.7856 13.7661 50.2734 13.1377 50.2734 12.1182V12.1094C50.2734 11.0898 49.7812 10.4614 48.9902 10.4614C48.1904 10.4614 47.7114 11.0854 47.7114 12.1094V12.1182C47.7114 13.1421 48.1904 13.7661 48.9902 13.7661ZM54.6328 14.5923C53.2354 14.5923 52.3916 13.6387 52.3916 12.127V12.1226C52.3916 10.6328 53.2529 9.63525 54.5845 9.63525C55.916 9.63525 56.7334 10.5977 56.7334 12.0303V12.3643H53.3496C53.3672 13.2783 53.8682 13.8101 54.6548 13.8101C55.2656 13.8101 55.6304 13.5068 55.7446 13.2607L55.7622 13.2256L56.6807 13.2212L56.6719 13.2607C56.5137 13.8892 55.8545 14.5923 54.6328 14.5923ZM54.5889 10.4175C53.9385 10.4175 53.4463 10.8613 53.3628 11.6831H55.7886C55.7139 10.8306 55.2349 10.4175 54.5889 10.4175ZM57.8672 14.5V9.72754H58.8208V10.4526H58.8911C59.124 9.94287 59.5811 9.63525 60.2754 9.63525C61.3433 9.63525 61.9321 10.2725 61.9321 11.4106V14.5H60.9829V11.6348C60.9829 10.8438 60.6533 10.4526 59.9546 10.4526C59.2559 10.4526 58.8208 10.9316 58.8208 11.7007V14.5H57.8672ZM66.2212 8.875C65.8916 8.875 65.6235 8.60693 65.6235 8.28174C65.6235 7.95215 65.8916 7.68408 66.2212 7.68408C66.5464 7.68408 66.8188 7.95215 66.8188 8.28174C66.8188 8.60693 66.5464 8.875 66.2212 8.875ZM65.7422 14.5V9.72754H66.6914V14.5H65.7422ZM68.0801 14.5V9.72754H69.0337V10.4614H69.104C69.3149 9.93848 69.7808 9.63525 70.4048 9.63525C71.0552 9.63525 71.5166 9.97363 71.7275 10.4878H71.8022C72.0439 9.97363 72.5933 9.63525 73.2568 9.63525C74.2192 9.63525 74.7817 10.2153 74.7817 11.2085V14.5H73.8325V11.437C73.8325 10.7778 73.5337 10.4526 72.9097 10.4526C72.3032 10.4526 71.9033 10.9053 71.9033 11.481V14.5H70.9541V11.3403C70.9541 10.7954 70.5981 10.4526 70.0356 10.4526C69.46 10.4526 69.0337 10.9448 69.0337 11.5688V14.5H68.0801Z" fill="white"/>
<path d="M36.2285 30.5L40.8428 17.8174H42.9697L47.5752 30.5H45.5098L44.3496 27.0723H39.4629L38.2939 30.5H36.2285ZM41.8887 19.918L39.9902 25.4902H43.8135L41.9238 19.918H41.8887ZM48.2829 33.5762V21.2539H50.1814V22.8447H50.2253C50.779 21.7461 51.7986 21.0781 53.1169 21.0781C55.4724 21.0781 56.9841 22.9238 56.9841 25.877V25.8857C56.9841 28.8301 55.4636 30.6846 53.1433 30.6846C51.8337 30.6846 50.7702 30.0166 50.2253 28.9443H50.1814V33.5762H48.2829ZM52.6247 29.0498C54.1189 29.0498 55.0505 27.8369 55.0505 25.8857V25.877C55.0505 23.9082 54.1101 22.7041 52.6247 22.7041C51.1833 22.7041 50.1726 23.9521 50.1726 25.877V25.8857C50.1726 27.8018 51.1921 29.0498 52.6247 29.0498ZM57.9907 33.5762V21.2539H59.8891V22.8447H59.933C60.4868 21.7461 61.5063 21.0781 62.8246 21.0781C65.1801 21.0781 66.6918 22.9238 66.6918 25.877V25.8857C66.6918 28.8301 65.1713 30.6846 62.851 30.6846C61.5414 30.6846 60.478 30.0166 59.933 28.9443H59.8891V33.5762H57.9907ZM62.3325 29.0498C63.8266 29.0498 64.7582 27.8369 64.7582 25.8857V25.877C64.7582 23.9082 63.8178 22.7041 62.3325 22.7041C60.8911 22.7041 59.8803 23.9521 59.8803 25.877V25.8857C59.8803 27.8018 60.8998 29.0498 62.3325 29.0498ZM75.4374 30.7109C72.5897 30.7109 70.7089 29.3574 70.5507 27.125L70.5419 26.9932H72.4579L72.4755 27.1074C72.6512 28.2764 73.8202 29.0059 75.5165 29.0059C77.2128 29.0059 78.285 28.2412 78.285 27.0547V27.0459C78.285 26.0264 77.5907 25.4727 75.912 25.1035L74.5321 24.8135C72.0448 24.2861 70.8407 23.1436 70.8407 21.2627V21.2539C70.8495 19.0918 72.7567 17.6064 75.4374 17.6064C78.0829 17.6064 79.8934 19.0479 80.0253 21.1748L80.0341 21.3242H78.118L78.1093 21.2012C77.9335 20.0234 76.9139 19.3115 75.411 19.3115C73.8378 19.3203 72.8358 20.0674 72.8358 21.1748V21.1836C72.8358 22.1328 73.5565 22.7129 75.1386 23.0557L76.5272 23.3457C79.1464 23.8994 80.2714 24.9629 80.2714 26.9229V26.9316C80.2714 29.2432 78.4432 30.7109 75.4374 30.7109ZM84.5914 30.6846C82.7633 30.6846 81.8844 29.9111 81.8844 28.0654V22.7656H80.5572V21.2539H81.8844V18.8457H83.8268V21.2539H85.5582V22.7656H83.8268V27.9512C83.8268 28.8916 84.2486 29.1729 85.0484 29.1729C85.2506 29.1729 85.4176 29.1553 85.5582 29.1377V30.6055C85.3385 30.6406 84.9781 30.6846 84.5914 30.6846ZM90.4056 30.6846C87.7513 30.6846 86.0198 28.8477 86.0198 25.877V25.8594C86.0198 22.9062 87.7689 21.0781 90.3968 21.0781C93.0335 21.0781 94.7913 22.8975 94.7913 25.8594V25.877C94.7913 28.8564 93.0511 30.6846 90.4056 30.6846ZM90.4144 29.0938C91.8997 29.0938 92.8489 27.916 92.8489 25.877V25.8594C92.8489 23.8379 91.8821 22.6689 90.3968 22.6689C88.9378 22.6689 87.9622 23.8379 87.9622 25.8594V25.877C87.9622 27.9248 88.929 29.0938 90.4144 29.0938ZM95.7891 30.5V21.2539H97.6875V22.8359H97.7315C98.0303 21.7549 98.8037 21.0781 99.8584 21.0781C100.131 21.0781 100.368 21.1221 100.518 21.1484V22.915C100.368 22.8535 100.034 22.8096 99.6651 22.8096C98.4434 22.8096 97.6875 23.6094 97.6875 24.9893V30.5H95.7891ZM104.767 30.6846C102.052 30.6846 100.408 28.8301 100.408 25.9121V25.9033C100.408 23.0117 102.078 21.0781 104.671 21.0781C107.263 21.0781 108.854 22.9414 108.854 25.7188V26.3604H102.306C102.342 28.1094 103.3 29.1289 104.811 29.1289C105.936 29.1289 106.683 28.5488 106.921 27.8545L106.947 27.7842H108.749L108.731 27.8809C108.432 29.3486 107.009 30.6846 104.767 30.6846ZM104.679 22.6338C103.449 22.6338 102.5 23.4688 102.333 25.0156H106.973C106.815 23.416 105.919 22.6338 104.679 22.6338Z" fill="white"/>
</svg>
